<?xml version="1.0" ?><svg data-name="Layer 1" id="Layer_1" viewBox="0 0 128 128" xmlns="http://www.w3.org/2000/svg"><defs><style>.cls-1{fill:none;stroke:#062b31;stroke-miterlimit:10;stroke-width:5.92px;}</style></defs><title/><path class="cls-1" d="M76.71,119.89,52.19,75.09,89.78,8.24A4.87,4.87,0,0,1,94,5.75h17.56a2.09,2.09,0,0,1,1.82,3.12L76.09,75.23l23.76,43.41a2.44,2.44,0,0,1-2.14,3.61h-17A4.5,4.5,0,0,1,76.71,119.89Z"/><path class="cls-1" d="M33.75,87.34h-17a2.44,2.44,0,0,1-2.13-3.64L32.48,52.13,21.09,31.91a2.09,2.09,0,0,1,1.82-3.11h17.5a4.88,4.88,0,0,1,4.24,2.47L56.49,52.15,38,84.86A4.86,4.86,0,0,1,33.75,87.34Z"/></svg>